<?xml version="1.0" encoding="UTF-8"?>
<svg xmlns="http://www.w3.org/2000/svg" xmlns:xlink="http://www.w3.org/1999/xlink" width="16pt" height="16pt" viewBox="0 0 16 16" version="1.1">
<g id="surface1">
<path style=" stroke:none;fill-rule:nonzero;fill:rgb(0%,0%,0%);fill-opacity:1;" d="M 1.332031 1.601562 L 4.800781 1.601562 L 4.800781 2.132812 L 1.332031 2.132812 Z M 1.332031 1.601562 "/>
<path style=" stroke:none;fill-rule:nonzero;fill:rgb(0%,0%,0%);fill-opacity:1;" d="M 1.332031 2.667969 L 4.800781 2.667969 L 4.800781 3.199219 L 1.332031 3.199219 Z M 1.332031 2.667969 "/>
<path style=" stroke:none;fill-rule:nonzero;fill:rgb(0%,0%,0%);fill-opacity:1;" d="M 1.332031 3.734375 L 3.734375 3.734375 L 3.734375 4.265625 L 1.332031 4.265625 Z M 1.332031 3.734375 "/>
<path style=" stroke:none;fill-rule:nonzero;fill:rgb(0%,0%,0%);fill-opacity:1;" d="M 1.332031 4.800781 L 3.734375 4.800781 L 3.734375 5.332031 L 1.332031 5.332031 Z M 1.332031 4.800781 "/>
<path style=" stroke:none;fill-rule:nonzero;fill:rgb(24.313725%,27.058824%,29.803922%);fill-opacity:1;" d="M 0 15.464844 L 16 15.464844 L 16 16 L 0 16 Z M 0 15.464844 "/>
<path style=" stroke:none;fill-rule:nonzero;fill:rgb(0%,0%,0%);fill-opacity:1;" d="M 15.4375 2.28125 L 14.371094 0.148438 C 14.304688 0.015625 14.144531 -0.0390625 14.015625 0.0273438 L 11.878906 1.09375 C 11.75 1.160156 11.695312 1.320312 11.761719 1.453125 C 11.828125 1.585938 11.988281 1.636719 12.121094 1.570312 L 13.664062 0.800781 L 13.242188 2.003906 C 11.390625 7.28125 6.617188 10.984375 1.042969 11.464844 L 1.089844 12 C 6.871094 11.5 11.824219 7.65625 13.746094 2.179688 L 14.175781 0.949219 L 14.960938 2.519531 C 15.027344 2.652344 15.1875 2.703125 15.320312 2.640625 C 15.449219 2.574219 15.503906 2.414062 15.4375 2.28125 Z M 15.4375 2.28125 "/>
<path style=" stroke:none;fill-rule:nonzero;fill:rgb(0%,0%,0%);fill-opacity:1;" d="M 3.199219 12.800781 L 1.332031 12.800781 C 1.1875 12.800781 1.066406 12.917969 1.066406 13.066406 L 1.066406 14.667969 C 1.066406 14.8125 1.1875 14.933594 1.332031 14.933594 L 3.199219 14.933594 C 3.347656 14.933594 3.464844 14.8125 3.464844 14.667969 L 3.464844 13.066406 C 3.464844 12.917969 3.347656 12.800781 3.199219 12.800781 Z M 2.933594 14.398438 L 1.601562 14.398438 L 1.601562 13.332031 L 2.933594 13.332031 Z M 2.933594 14.398438 "/>
<path style=" stroke:none;fill-rule:nonzero;fill:rgb(0%,0%,0%);fill-opacity:1;" d="M 6.132812 12 L 4.265625 12 C 4.121094 12 4 12.121094 4 12.265625 L 4 14.667969 C 4 14.8125 4.121094 14.933594 4.265625 14.933594 L 6.132812 14.933594 C 6.28125 14.933594 6.398438 14.8125 6.398438 14.667969 L 6.398438 12.265625 C 6.398438 12.121094 6.28125 12 6.132812 12 Z M 5.867188 14.398438 L 4.535156 14.398438 L 4.535156 12.535156 L 5.867188 12.535156 Z M 5.867188 14.398438 "/>
<path style=" stroke:none;fill-rule:nonzero;fill:rgb(0%,0%,0%);fill-opacity:1;" d="M 9.066406 10.667969 L 7.199219 10.667969 C 7.054688 10.667969 6.933594 10.785156 6.933594 10.933594 L 6.933594 14.667969 C 6.933594 14.8125 7.054688 14.933594 7.199219 14.933594 L 9.066406 14.933594 C 9.214844 14.933594 9.332031 14.8125 9.332031 14.667969 L 9.332031 10.933594 C 9.332031 10.785156 9.214844 10.667969 9.066406 10.667969 Z M 8.800781 14.398438 L 7.464844 14.398438 L 7.464844 11.199219 L 8.800781 11.199219 Z M 8.800781 14.398438 "/>
<path style=" stroke:none;fill-rule:nonzero;fill:rgb(0%,0%,0%);fill-opacity:1;" d="M 12 8.800781 L 10.132812 8.800781 C 9.984375 8.800781 9.867188 8.917969 9.867188 9.066406 L 9.867188 14.667969 C 9.867188 14.8125 9.984375 14.933594 10.132812 14.933594 L 12 14.933594 C 12.148438 14.933594 12.265625 14.8125 12.265625 14.667969 L 12.265625 9.066406 C 12.265625 8.917969 12.148438 8.800781 12 8.800781 Z M 11.734375 14.398438 L 10.398438 14.398438 L 10.398438 9.332031 L 11.734375 9.332031 Z M 11.734375 14.398438 "/>
<path style=" stroke:none;fill-rule:nonzero;fill:rgb(0%,0%,0%);fill-opacity:1;" d="M 14.933594 5.066406 L 13.066406 5.066406 C 12.917969 5.066406 12.800781 5.1875 12.800781 5.332031 L 12.800781 14.667969 C 12.800781 14.8125 12.917969 14.933594 13.066406 14.933594 L 14.933594 14.933594 C 15.082031 14.933594 15.199219 14.8125 15.199219 14.667969 L 15.199219 5.332031 C 15.199219 5.1875 15.082031 5.066406 14.933594 5.066406 Z M 14.667969 14.398438 L 13.332031 14.398438 L 13.332031 5.601562 L 14.667969 5.601562 Z M 14.667969 14.398438 "/>
</g>
</svg>
