<?xml version="1.0" encoding="UTF-8"?>
<svg xmlns="http://www.w3.org/2000/svg" xmlns:xlink="http://www.w3.org/1999/xlink" width="16pt" height="16pt" viewBox="0 0 16 16" version="1.1">
<g id="surface1">
<path style=" stroke:none;fill-rule:nonzero;fill:rgb(0%,0%,0%);fill-opacity:1;" d="M 13.675781 11.300781 L 10.363281 12.902344 L 9.089844 10.261719 L 12.394531 8.660156 Z M 12.871094 4.582031 L 15.605469 10.226562 L 13.949219 11.027344 L 11.21875 5.382812 Z M 11.417969 13.355469 L 16 11.214844 L 15.894531 10.765625 L 10.921875 13.070312 C 10.679688 12.992188 10.417969 12.980469 10.171875 13.042969 C 10.125 13.050781 10.082031 13.066406 10.039062 13.078125 L 6.625 6.625 C 7.050781 6.164062 6.65625 5.15625 5.828125 5.261719 C 5.746094 5.269531 5.714844 5.277344 5.65625 5.285156 C 4.871094 5.230469 4.082031 4.972656 3.371094 4.59375 C 3.363281 4.511719 3.363281 4.429688 3.355469 4.347656 C 3.316406 3.667969 2.917969 3.066406 2.179688 3.023438 C 1.558594 2.988281 0.816406 3.519531 0.855469 4.203125 C 0.957031 5.8125 0.957031 6.207031 0.949219 7.75 L 0.933594 7.75 C 0.941406 7.957031 0.953125 8.296875 0.964844 8.503906 C 0.980469 8.820312 1.089844 9.078125 1.261719 9.269531 C 1.261719 9.273438 1.261719 9.277344 1.261719 9.277344 C 1.460938 9.582031 1.445312 9.90625 1.605469 10.234375 C 1.3125 11.628906 0.386719 13.019531 0.0273438 14.394531 C -0.230469 15.410156 1.328125 15.839844 1.589844 14.828125 C 1.953125 13.4375 3.058594 12.035156 3.351562 10.628906 C 3.367188 10.558594 3.371094 10.488281 3.371094 10.425781 C 4.34375 11.429688 4.996094 13.0625 5.121094 14.488281 C 5.207031 15.523438 6.832031 15.53125 6.738281 14.488281 C 6.535156 12.109375 5.324219 9.800781 3.460938 8.371094 L 3.441406 8.011719 L 3.449219 8.011719 C 3.449219 7.042969 3.453125 7.367188 3.433594 6.398438 C 4.105469 6.65625 4.804688 6.816406 5.519531 6.871094 L 5.519531 6.894531 C 5.769531 6.890625 5.929688 6.871094 6.175781 6.839844 C 6.222656 6.835938 6.261719 6.824219 6.304688 6.8125 L 9.609375 13.320312 C 9.199219 13.65625 9.011719 14.199219 9.136719 14.71875 C 9.316406 15.46875 10.066406 15.929688 10.816406 15.753906 C 11.566406 15.574219 12.027344 14.824219 11.847656 14.074219 C 11.785156 13.792969 11.632812 13.542969 11.417969 13.355469 Z M 10.601562 14.855469 C 10.347656 14.914062 10.097656 14.757812 10.035156 14.503906 C 9.976562 14.253906 10.128906 14 10.382812 13.941406 C 10.636719 13.878906 10.890625 14.035156 10.949219 14.289062 C 11.011719 14.542969 10.855469 14.792969 10.601562 14.855469 Z M 10.941406 5.65625 L 12.21875 8.296875 L 8.910156 9.898438 L 7.632812 7.257812 Z M 2.152344 0.207031 C 2.828125 0.207031 3.371094 0.753906 3.371094 1.425781 C 3.371094 2.097656 2.828125 2.644531 2.152344 2.644531 C 1.480469 2.644531 0.9375 2.097656 0.9375 1.425781 C 0.9375 0.753906 1.480469 0.207031 2.152344 0.207031 Z M 2.152344 0.207031 "/>
</g>
</svg>
