<?xml version="1.0" encoding="UTF-8"?>
<svg xmlns="http://www.w3.org/2000/svg" xmlns:xlink="http://www.w3.org/1999/xlink" width="16pt" height="16pt" viewBox="0 0 16 16" version="1.1">
<g id="surface1">
<path style=" stroke:none;fill-rule:nonzero;fill:rgb(0%,0%,0%);fill-opacity:1;" d="M 15.449219 8.78125 L 7.207031 0.546875 C 6.84375 0.183594 6.347656 -0.0117188 5.832031 0.00390625 L 1.503906 0.113281 C 0.738281 0.132812 0.121094 0.75 0.101562 1.515625 L 0 5.839844 C -0.0117188 6.351562 0.191406 6.847656 0.554688 7.207031 L 8.792969 15.441406 C 9.527344 16.175781 10.714844 16.1875 11.449219 15.457031 L 15.449219 11.449219 C 16.183594 10.714844 16.183594 9.511719 15.449219 8.78125 Z M 2.941406 5.039062 C 2.363281 4.464844 2.363281 3.53125 2.941406 2.953125 C 3.515625 2.378906 4.449219 2.378906 5.027344 2.953125 C 5.601562 3.527344 5.605469 4.460938 5.027344 5.035156 C 4.453125 5.613281 3.519531 5.613281 2.941406 5.039062 Z M 5.722656 7.558594 C 5.519531 7.355469 5.371094 7.105469 5.324219 6.949219 L 5.738281 6.691406 C 5.792969 6.855469 5.902344 7.078125 6.078125 7.25 C 6.261719 7.433594 6.4375 7.453125 6.554688 7.335938 C 6.664062 7.222656 6.644531 7.074219 6.503906 6.785156 C 6.308594 6.386719 6.277344 6.03125 6.535156 5.769531 C 6.835938 5.464844 7.324219 5.480469 7.746094 5.898438 C 7.949219 6.097656 8.054688 6.289062 8.113281 6.441406 L 7.699219 6.679688 C 7.640625 6.507812 7.542969 6.351562 7.410156 6.222656 C 7.234375 6.050781 7.070312 6.046875 6.980469 6.140625 C 6.863281 6.253906 6.917969 6.40625 7.0625 6.722656 C 7.261719 7.152344 7.246094 7.464844 7 7.71875 C 6.699219 8.019531 6.214844 8.042969 5.722656 7.558594 Z M 7.6875 9.445312 L 8.003906 8.847656 L 7.488281 8.339844 L 6.910156 8.675781 L 6.488281 8.257812 L 8.808594 7.003906 L 9.339844 7.53125 L 8.125 9.875 Z M 8.234375 9.980469 L 10.003906 8.1875 L 10.414062 8.589844 L 8.976562 10.042969 L 9.691406 10.746094 L 9.355469 11.089844 Z M 12.011719 10.824219 L 11.3125 10.136719 L 10.945312 10.507812 L 11.605469 11.160156 L 11.277344 11.492188 L 10.617188 10.839844 L 10.199219 11.261719 L 10.933594 11.992188 L 10.605469 12.324219 L 9.464844 11.195312 L 11.234375 9.402344 L 12.339844 10.496094 Z M 12.011719 10.824219 "/>
<path style=" stroke:none;fill-rule:nonzero;fill:rgb(0%,0%,0%);fill-opacity:1;" d="M 7.847656 8.09375 L 8.246094 8.488281 L 8.753906 7.550781 C 8.625 7.632812 7.847656 8.09375 7.847656 8.09375 Z M 7.847656 8.09375 "/>
</g>
</svg>
