<?xml version="1.0" encoding="UTF-8"?>
<svg xmlns="http://www.w3.org/2000/svg" xmlns:xlink="http://www.w3.org/1999/xlink" width="16pt" height="16pt" viewBox="0 0 16 16" version="1.1">
<g id="surface1">
<path style=" stroke:none;fill-rule:nonzero;fill:rgb(0%,0%,0%);fill-opacity:1;" d="M 15.867188 4.570312 L 8.136719 0.0351562 C 8.054688 -0.0117188 7.953125 -0.0117188 7.871094 0.0351562 L 0.136719 4.300781 C 0.0507812 4.347656 0 4.433594 0 4.535156 L 0 15.734375 C 0 15.878906 0.121094 16 0.265625 16 L 1.597656 16 C 1.746094 16 1.867188 15.878906 1.867188 15.734375 L 1.867188 6.402344 L 14.132812 6.402344 L 14.132812 15.734375 C 14.132812 15.804688 14.160156 15.871094 14.210938 15.921875 C 14.261719 15.972656 14.328125 16 14.402344 16 L 15.734375 16 C 15.804688 16 15.871094 15.972656 15.921875 15.921875 C 15.972656 15.871094 16 15.804688 16 15.734375 L 16 4.800781 C 16 4.707031 15.949219 4.617188 15.867188 4.570312 Z M 15.464844 15.464844 L 14.667969 15.464844 L 14.667969 6.132812 C 14.667969 5.988281 14.546875 5.867188 14.402344 5.867188 L 1.597656 5.867188 C 1.453125 5.867188 1.332031 5.988281 1.332031 6.132812 L 1.332031 15.464844 L 0.535156 15.464844 L 0.535156 4.691406 L 7.996094 0.574219 L 15.464844 4.953125 Z M 15.464844 15.464844 "/>
<path style=" stroke:none;fill-rule:nonzero;fill:rgb(0%,0%,0%);fill-opacity:1;" d="M 13.332031 12.265625 L 10.132812 12.265625 C 10.0625 12.265625 9.996094 12.292969 9.945312 12.34375 C 9.894531 12.394531 9.867188 12.464844 9.867188 12.535156 L 9.867188 15.734375 C 9.867188 15.804688 9.894531 15.871094 9.945312 15.921875 C 9.996094 15.972656 10.0625 16 10.132812 16 L 13.332031 16 C 13.402344 16 13.472656 15.972656 13.519531 15.921875 C 13.574219 15.871094 13.597656 15.804688 13.597656 15.734375 L 13.597656 12.535156 C 13.597656 12.464844 13.574219 12.394531 13.519531 12.34375 C 13.472656 12.292969 13.402344 12.265625 13.332031 12.265625 Z M 13.066406 15.464844 L 10.402344 15.464844 L 10.402344 12.800781 L 13.066406 12.800781 Z M 13.066406 15.464844 "/>
<path style=" stroke:none;fill-rule:nonzero;fill:rgb(0%,0%,0%);fill-opacity:1;" d="M 12 12.535156 L 12 13.332031 L 11.464844 13.332031 L 11.464844 12.535156 L 10.933594 12.535156 L 10.933594 13.597656 C 10.933594 13.671875 10.960938 13.738281 11.011719 13.789062 C 11.0625 13.839844 11.128906 13.867188 11.199219 13.867188 L 12.265625 13.867188 C 12.339844 13.867188 12.40625 13.839844 12.457031 13.789062 C 12.503906 13.738281 12.535156 13.671875 12.535156 13.597656 L 12.535156 12.535156 Z M 12 12.535156 "/>
<path style=" stroke:none;fill-rule:nonzero;fill:rgb(0%,0%,0%);fill-opacity:1;" d="M 10.132812 12.265625 L 6.933594 12.265625 C 6.785156 12.265625 6.667969 12.386719 6.667969 12.535156 L 6.667969 15.734375 C 6.667969 15.878906 6.785156 16 6.933594 16 L 10.132812 16 C 10.203125 16 10.269531 15.972656 10.324219 15.921875 C 10.371094 15.871094 10.402344 15.804688 10.402344 15.734375 L 10.402344 12.535156 C 10.402344 12.464844 10.371094 12.394531 10.324219 12.34375 C 10.269531 12.292969 10.203125 12.265625 10.132812 12.265625 Z M 9.867188 15.464844 L 7.199219 15.464844 L 7.199219 12.800781 L 9.867188 12.800781 Z M 9.867188 15.464844 "/>
<path style=" stroke:none;fill-rule:nonzero;fill:rgb(0%,0%,0%);fill-opacity:1;" d="M 8.800781 12.535156 L 8.800781 13.332031 L 8.265625 13.332031 L 8.265625 12.535156 L 7.734375 12.535156 L 7.734375 13.597656 C 7.734375 13.746094 7.851562 13.867188 8 13.867188 L 9.066406 13.867188 C 9.136719 13.867188 9.207031 13.839844 9.253906 13.789062 C 9.304688 13.738281 9.332031 13.671875 9.332031 13.597656 L 9.332031 12.535156 Z M 8.800781 12.535156 "/>
<path style=" stroke:none;fill-rule:nonzero;fill:rgb(0%,0%,0%);fill-opacity:1;" d="M 13.332031 9.066406 L 10.132812 9.066406 C 10.0625 9.066406 9.996094 9.09375 9.945312 9.144531 C 9.894531 9.195312 9.867188 9.261719 9.867188 9.332031 L 9.867188 12.535156 C 9.867188 12.605469 9.894531 12.671875 9.945312 12.722656 C 9.996094 12.769531 10.0625 12.800781 10.132812 12.800781 L 13.332031 12.800781 C 13.402344 12.800781 13.472656 12.769531 13.519531 12.722656 C 13.574219 12.671875 13.597656 12.605469 13.597656 12.535156 L 13.597656 9.332031 C 13.597656 9.261719 13.574219 9.195312 13.519531 9.144531 C 13.472656 9.09375 13.402344 9.066406 13.332031 9.066406 Z M 13.066406 12.265625 L 10.402344 12.265625 L 10.402344 9.597656 L 13.066406 9.597656 Z M 13.066406 12.265625 "/>
<path style=" stroke:none;fill-rule:nonzero;fill:rgb(0%,0%,0%);fill-opacity:1;" d="M 12 9.332031 L 12 10.132812 L 11.464844 10.132812 L 11.464844 9.332031 L 10.933594 9.332031 L 10.933594 10.402344 C 10.933594 10.472656 10.960938 10.539062 11.011719 10.589844 C 11.0625 10.636719 11.128906 10.667969 11.199219 10.667969 L 12.265625 10.667969 C 12.339844 10.667969 12.40625 10.636719 12.457031 10.589844 C 12.503906 10.539062 12.535156 10.472656 12.535156 10.402344 L 12.535156 9.332031 Z M 12 9.332031 "/>
<path style=" stroke:none;fill-rule:nonzero;fill:rgb(0%,0%,0%);fill-opacity:1;" d="M 1.597656 8 L 14.402344 8 L 14.402344 8.535156 L 1.597656 8.535156 Z M 1.597656 8 "/>
<path style=" stroke:none;fill-rule:nonzero;fill:rgb(0%,0%,0%);fill-opacity:1;" d="M 1.597656 6.933594 L 14.402344 6.933594 L 14.402344 7.464844 L 1.597656 7.464844 Z M 1.597656 6.933594 "/>
<path style=" stroke:none;fill-rule:nonzero;fill:rgb(0%,0%,0%);fill-opacity:1;" d="M 9.332031 3.734375 L 6.667969 3.734375 C 6.519531 3.734375 6.402344 3.851562 6.402344 4 L 6.402344 5.066406 C 6.402344 5.214844 6.519531 5.332031 6.667969 5.332031 L 9.332031 5.332031 C 9.480469 5.332031 9.597656 5.214844 9.597656 5.066406 L 9.597656 4 C 9.597656 3.851562 9.480469 3.734375 9.332031 3.734375 Z M 9.066406 4.800781 L 6.933594 4.800781 L 6.933594 4.265625 L 9.066406 4.265625 Z M 9.066406 4.800781 "/>
</g>
</svg>
