<?xml version="1.0" encoding="UTF-8"?>
<svg xmlns="http://www.w3.org/2000/svg" xmlns:xlink="http://www.w3.org/1999/xlink" width="16pt" height="16pt" viewBox="0 0 16 16" version="1.1">
<g id="surface1">
<path style=" stroke:none;fill-rule:nonzero;fill:rgb(0%,0%,0%);fill-opacity:1;" d="M 15.765625 13.183594 C 15.636719 13.183594 15.53125 13.289062 15.53125 13.417969 L 15.53125 14.984375 C 15.53125 15.003906 15.511719 15.023438 15.492188 15.023438 L 14.601562 15.023438 L 14.601562 11.597656 C 14.601562 11.472656 14.496094 11.363281 14.367188 11.363281 C 14.238281 11.363281 14.132812 11.472656 14.132812 11.597656 L 14.132812 15.023438 L 12.410156 15.023438 L 12.878906 14.511719 C 12.949219 14.433594 12.984375 14.320312 12.96875 14.210938 C 12.96875 14.207031 12.964844 14.207031 12.964844 14.203125 L 12.441406 11.109375 L 12.539062 10.964844 L 12.566406 10.984375 C 12.652344 11.042969 12.761719 11.066406 12.867188 11.039062 C 12.972656 11.011719 13.058594 10.941406 13.105469 10.847656 L 13.636719 9.78125 L 14.855469 10.253906 C 14.902344 10.273438 15.53125 10.558594 15.53125 11.308594 L 15.53125 12.324219 C 15.535156 12.453125 15.636719 12.558594 15.765625 12.558594 C 15.894531 12.558594 15.996094 12.453125 16 12.324219 L 16 11.308594 C 16 10.226562 15.074219 9.832031 15.035156 9.816406 C 15.03125 9.816406 15.027344 9.816406 15.027344 9.816406 L 12.957031 9.011719 L 12.957031 8.585938 C 13.277344 8.324219 13.507812 7.949219 13.574219 7.523438 C 13.738281 7.503906 13.886719 7.4375 14.011719 7.332031 C 14.1875 7.179688 14.292969 6.957031 14.292969 6.722656 C 14.292969 6.535156 14.226562 6.355469 14.109375 6.210938 L 14.109375 5.578125 C 14.109375 4.339844 13.101562 3.332031 11.863281 3.332031 C 11.308594 3.332031 10.800781 3.535156 10.40625 3.871094 C 10.402344 3.691406 10.339844 3.519531 10.226562 3.382812 L 10.226562 2.753906 C 10.226562 1.511719 9.21875 0.507812 7.980469 0.507812 C 6.742188 0.507812 5.738281 1.511719 5.738281 2.753906 L 5.738281 3.402344 C 5.625 3.535156 5.558594 3.699219 5.554688 3.871094 C 5.300781 3.652344 4.996094 3.492188 4.671875 3.40625 C 4.546875 3.375 4.417969 3.449219 4.386719 3.574219 C 4.351562 3.699219 4.425781 3.828125 4.550781 3.859375 C 5.332031 4.066406 5.875 4.769531 5.875 5.578125 L 5.875 5.925781 C 5.859375 5.925781 5.84375 5.921875 5.832031 5.917969 C 5.828125 5.855469 5.808594 5.8125 5.773438 5.761719 C 5.714844 5.675781 5.605469 5.566406 5.261719 5.195312 C 5.136719 5.0625 4.9375 5.039062 4.785156 5.136719 C 4.191406 5.527344 3.472656 5.722656 2.800781 5.683594 C 2.582031 5.671875 2.449219 5.765625 2.386719 5.925781 C 2.382812 5.925781 2.324219 5.933594 2.324219 5.9375 L 2.324219 5.578125 C 2.324219 4.800781 2.839844 4.101562 3.585938 3.878906 C 3.667969 3.855469 3.730469 3.789062 3.75 3.707031 C 3.769531 3.625 3.742188 3.535156 3.679688 3.480469 C 3.621094 3.421875 3.53125 3.402344 3.449219 3.425781 C 2.996094 3.566406 2.589844 3.847656 2.304688 4.226562 C 2.011719 4.617188 1.855469 5.085938 1.855469 5.578125 L 1.855469 6.226562 C 1.734375 6.367188 1.671875 6.539062 1.671875 6.722656 C 1.671875 7.121094 1.964844 7.472656 2.386719 7.523438 C 2.457031 7.941406 2.683594 8.339844 3.042969 8.613281 L 3.042969 9.011719 L 0.972656 9.816406 C 0.972656 9.816406 0.96875 9.816406 0.964844 9.816406 C 0.925781 9.832031 0 10.226562 0 11.308594 L 0 14.984375 C 0 15.265625 0.230469 15.492188 0.507812 15.492188 L 7.726562 15.492188 C 7.824219 15.492188 7.917969 15.464844 8 15.410156 C 8.082031 15.464844 8.175781 15.492188 8.273438 15.492188 L 15.492188 15.492188 C 15.769531 15.492188 16 15.265625 16 14.984375 L 16 13.417969 C 16 13.289062 15.894531 13.183594 15.765625 13.183594 Z M 2.363281 7.039062 C 2.230469 6.988281 2.140625 6.863281 2.140625 6.722656 C 2.140625 6.582031 2.238281 6.46875 2.363281 6.414062 Z M 13.199219 9.609375 L 12.738281 10.53125 L 12.222656 10.164062 L 12.796875 9.453125 Z M 11.882812 9.839844 L 11.277344 9.089844 L 11.277344 8.863281 C 11.472656 8.933594 11.683594 8.964844 11.886719 8.964844 C 12.089844 8.964844 12.300781 8.925781 12.488281 8.855469 L 12.488281 9.089844 Z M 12.15625 10.691406 L 12.070312 10.824219 L 11.691406 10.824219 L 11.605469 10.691406 L 11.882812 10.496094 Z M 8 7.011719 L 7.394531 6.261719 L 7.394531 6.039062 C 7.589844 6.105469 7.800781 6.136719 8.003906 6.136719 C 8.207031 6.136719 8.417969 6.097656 8.605469 6.027344 L 8.605469 6.265625 Z M 8.273438 7.867188 L 8.1875 7.996094 L 7.808594 7.996094 L 7.722656 7.867188 L 8 7.671875 Z M 6.152344 4.675781 C 6.191406 4.683594 6.230469 4.691406 6.269531 4.699219 C 6.339844 5.113281 6.566406 5.515625 6.925781 5.789062 L 6.925781 6.1875 L 6.445312 6.371094 C 6.417969 6.316406 6.382812 6.261719 6.34375 6.210938 L 6.34375 5.578125 C 6.34375 5.265625 6.277344 4.960938 6.152344 4.675781 Z M 9.246094 4.425781 C 9.246094 5.113281 8.683594 5.667969 8.003906 5.667969 C 7.230469 5.667969 6.714844 5.074219 6.714844 4.425781 L 6.714844 3.328125 C 7.457031 3.359375 8.226562 3.140625 8.855469 2.746094 C 9.066406 2.972656 9.191406 3.105469 9.246094 3.167969 Z M 9.691406 4.699219 C 9.730469 4.691406 9.769531 4.683594 9.808594 4.675781 C 9.683594 4.957031 9.621094 5.265625 9.621094 5.578125 L 9.621094 6.226562 C 9.582031 6.269531 9.550781 6.316406 9.527344 6.363281 L 9.074219 6.1875 L 9.074219 5.761719 C 9.394531 5.5 9.625 5.125 9.691406 4.699219 Z M 7.082031 6.628906 L 7.660156 7.339844 L 7.269531 7.617188 L 7.265625 7.617188 L 7.144531 7.707031 L 6.683594 6.785156 Z M 8.539062 7.089844 L 8.914062 6.628906 L 9.316406 6.785156 L 8.855469 7.707031 L 8.730469 7.617188 L 8.339844 7.339844 Z M 8.65625 8.140625 L 8.683594 8.160156 C 8.769531 8.21875 8.878906 8.238281 8.984375 8.214844 C 9.089844 8.1875 9.175781 8.117188 9.222656 8.023438 L 9.617188 7.230469 C 9.753906 7.394531 9.949219 7.5 10.152344 7.523438 C 10.222656 7.972656 10.464844 8.355469 10.808594 8.613281 L 10.808594 9.011719 L 8.816406 9.785156 L 8.558594 8.285156 Z M 10.964844 9.453125 L 11.542969 10.164062 L 11.027344 10.53125 L 10.566406 9.609375 Z M 13.128906 7.253906 C 13.128906 7.921875 12.582031 8.496094 11.886719 8.496094 C 11.089844 8.496094 10.597656 7.871094 10.597656 7.253906 L 10.597656 6.15625 C 11.335938 6.183594 12.105469 5.96875 12.738281 5.574219 C 12.949219 5.800781 13.074219 5.933594 13.128906 5.992188 Z M 13.824219 6.722656 C 13.824219 6.863281 13.734375 6.988281 13.597656 7.039062 L 13.597656 6.402344 C 13.738281 6.453125 13.824219 6.582031 13.824219 6.722656 Z M 10.089844 5.578125 C 10.089844 4.597656 10.886719 3.800781 11.863281 3.800781 C 12.84375 3.800781 13.640625 4.597656 13.640625 5.578125 L 13.640625 5.925781 C 13.625 5.925781 13.609375 5.921875 13.597656 5.917969 C 13.59375 5.855469 13.574219 5.8125 13.539062 5.761719 C 13.480469 5.671875 13.371094 5.566406 13.027344 5.195312 C 12.902344 5.066406 12.707031 5.035156 12.550781 5.136719 C 11.972656 5.515625 11.242188 5.726562 10.550781 5.683594 C 10.355469 5.667969 10.214844 5.765625 10.152344 5.925781 C 10.148438 5.925781 10.089844 5.933594 10.089844 5.9375 Z M 10.128906 6.414062 L 10.128906 7.039062 C 9.992188 6.988281 9.90625 6.863281 9.90625 6.722656 C 9.90625 6.582031 10.003906 6.46875 10.128906 6.414062 Z M 9.941406 3.894531 C 9.941406 3.992188 9.894531 4.085938 9.824219 4.152344 C 9.789062 4.175781 9.753906 4.199219 9.714844 4.214844 L 9.714844 3.574219 C 9.855469 3.628906 9.941406 3.753906 9.941406 3.894531 Z M 7.980469 0.976562 C 8.960938 0.976562 9.757812 1.773438 9.757812 2.753906 L 9.757812 3.101562 C 9.742188 3.097656 9.726562 3.097656 9.714844 3.09375 C 9.707031 3.023438 9.6875 2.980469 9.644531 2.921875 C 9.582031 2.835938 9.46875 2.71875 9.144531 2.371094 C 9.019531 2.238281 8.816406 2.214844 8.667969 2.3125 C 8.058594 2.710938 7.316406 2.902344 6.648438 2.855469 C 6.484375 2.84375 6.328125 2.941406 6.269531 3.097656 C 6.265625 3.097656 6.207031 3.109375 6.207031 3.113281 L 6.207031 2.753906 C 6.207031 1.773438 7.003906 0.976562 7.980469 0.976562 Z M 6.246094 3.589844 L 6.246094 4.214844 C 6.113281 4.164062 6.023438 4.035156 6.023438 3.894531 C 6.023438 3.757812 6.121094 3.644531 6.246094 3.589844 Z M 5.832031 6.402344 C 5.960938 6.449219 6.046875 6.566406 6.054688 6.699219 C 6.066406 6.851562 5.972656 6.988281 5.832031 7.039062 Z M 5.808594 7.523438 C 6.03125 7.496094 6.234375 7.378906 6.367188 7.199219 L 6.777344 8.023438 C 6.824219 8.117188 6.910156 8.1875 7.015625 8.214844 C 7.117188 8.238281 7.230469 8.222656 7.316406 8.160156 L 7.339844 8.140625 L 7.4375 8.285156 L 7.183594 9.785156 L 5.191406 9.011719 L 5.191406 8.585938 C 5.523438 8.316406 5.742188 7.941406 5.808594 7.523438 Z M 4.117188 9.839844 L 3.511719 9.089844 L 3.511719 8.863281 C 3.707031 8.933594 3.917969 8.964844 4.121094 8.964844 C 4.324219 8.964844 4.527344 8.925781 4.722656 8.855469 L 4.722656 9.089844 Z M 4.390625 10.691406 L 4.304688 10.824219 L 3.925781 10.824219 L 3.839844 10.691406 L 4.117188 10.496094 Z M 5.03125 9.453125 L 5.433594 9.609375 L 4.972656 10.53125 L 4.847656 10.441406 L 4.457031 10.164062 Z M 2.832031 7.253906 L 2.832031 6.15625 C 3.578125 6.183594 4.347656 5.964844 4.972656 5.574219 C 5.183594 5.800781 5.308594 5.933594 5.363281 5.992188 L 5.363281 7.253906 C 5.363281 7.933594 4.808594 8.496094 4.121094 8.496094 C 3.355469 8.496094 2.832031 7.90625 2.832031 7.253906 Z M 3.199219 9.453125 L 3.777344 10.164062 L 3.386719 10.441406 L 3.261719 10.53125 L 2.800781 9.609375 Z M 1.867188 15.023438 L 1.867188 11.597656 C 1.867188 11.472656 1.761719 11.363281 1.632812 11.363281 C 1.503906 11.363281 1.398438 11.472656 1.398438 11.597656 L 1.398438 15.023438 L 0.507812 15.023438 C 0.488281 15.023438 0.46875 15.007812 0.46875 14.984375 L 0.46875 11.308594 C 0.46875 10.558594 1.105469 10.269531 1.144531 10.253906 L 2.359375 9.78125 L 2.894531 10.847656 C 2.941406 10.941406 3.027344 11.011719 3.132812 11.039062 C 3.234375 11.066406 3.347656 11.046875 3.433594 10.984375 L 3.457031 10.964844 L 3.554688 11.109375 L 3.03125 14.203125 C 3.03125 14.207031 3.03125 14.207031 3.03125 14.210938 C 3.015625 14.320312 3.050781 14.433594 3.121094 14.511719 L 3.589844 15.023438 Z M 3.503906 14.234375 L 4 11.292969 L 4.234375 11.292969 L 4.730469 14.234375 L 4.117188 14.910156 Z M 7.765625 14.984375 C 7.765625 15.007812 7.746094 15.023438 7.726562 15.023438 L 6.835938 15.023438 L 6.835938 11.597656 C 6.835938 11.472656 6.730469 11.363281 6.601562 11.363281 C 6.472656 11.363281 6.367188 11.472656 6.367188 11.597656 L 6.367188 15.023438 L 4.644531 15.023438 L 5.113281 14.511719 C 5.183594 14.433594 5.21875 14.320312 5.203125 14.210938 C 5.203125 14.207031 5.199219 14.207031 5.199219 14.203125 L 4.675781 11.109375 L 4.773438 10.964844 L 4.800781 10.984375 C 4.886719 11.042969 4.996094 11.066406 5.101562 11.039062 C 5.207031 11.011719 5.292969 10.941406 5.339844 10.847656 L 5.871094 9.78125 L 7.089844 10.253906 C 7.445312 10.40625 7.765625 10.804688 7.765625 11.308594 Z M 8 10.457031 C 7.902344 10.300781 7.773438 10.15625 7.617188 10.035156 L 7.882812 8.464844 L 8.117188 8.464844 L 8.378906 10.035156 C 8.222656 10.160156 8.09375 10.308594 8 10.457031 Z M 9.632812 15.023438 L 9.632812 11.597656 C 9.632812 11.472656 9.527344 11.363281 9.398438 11.363281 C 9.269531 11.363281 9.164062 11.472656 9.164062 11.597656 L 9.164062 15.023438 L 8.273438 15.023438 C 8.253906 15.023438 8.234375 15.007812 8.234375 14.984375 L 8.234375 11.308594 C 8.234375 11.03125 8.324219 10.773438 8.507812 10.558594 C 8.632812 10.417969 8.796875 10.300781 8.910156 10.253906 L 10.125 9.78125 L 10.660156 10.847656 C 10.707031 10.941406 10.792969 11.011719 10.898438 11.039062 C 11 11.066406 11.113281 11.046875 11.199219 10.984375 L 11.222656 10.964844 L 11.320312 11.109375 L 10.796875 14.203125 C 10.796875 14.207031 10.796875 14.207031 10.796875 14.210938 C 10.78125 14.320312 10.816406 14.433594 10.886719 14.511719 L 11.355469 15.023438 Z M 11.269531 14.234375 L 11.765625 11.292969 L 12 11.292969 L 12.496094 14.234375 L 11.882812 14.910156 Z M 11.269531 14.234375 "/>
</g>
</svg>
