<?xml version="1.0" encoding="UTF-8"?>
<svg xmlns="http://www.w3.org/2000/svg" xmlns:xlink="http://www.w3.org/1999/xlink" width="16pt" height="16pt" viewBox="0 0 16 16" version="1.1">
<g id="surface1">
<path style=" stroke:none;fill-rule:nonzero;fill:rgb(0%,0%,0%);fill-opacity:1;" d="M 15.734375 15.464844 L 14.402344 15.464844 L 14.402344 6.363281 L 15.554688 7.398438 C 15.664062 7.496094 15.832031 7.488281 15.933594 7.378906 C 16.03125 7.269531 16.019531 7.097656 15.910156 7.003906 L 13.597656 4.925781 L 13.597656 1.066406 C 13.597656 0.917969 13.480469 0.800781 13.332031 0.800781 L 10.933594 0.800781 C 10.785156 0.800781 10.667969 0.917969 10.667969 1.066406 L 10.667969 2.292969 L 8.183594 0.0664062 C 8.160156 0.046875 8.132812 0.0273438 8.101562 0.0195312 C 8.074219 0.00390625 8.039062 0 8.007812 0 C 7.976562 0 7.945312 0.00390625 7.914062 0.0195312 C 7.886719 0.0273438 7.855469 0.0429688 7.832031 0.0664062 L 1.691406 5.566406 L 0.0898438 7.003906 C -0.0195312 7.097656 -0.03125 7.269531 0.0664062 7.378906 C 0.121094 7.4375 0.191406 7.464844 0.265625 7.464844 C 0.332031 7.464844 0.394531 7.445312 0.445312 7.398438 L 1.597656 6.363281 L 1.597656 15.464844 L 0.265625 15.464844 C 0.121094 15.464844 0 15.585938 0 15.734375 C 0 15.878906 0.121094 16 0.265625 16 L 15.734375 16 C 15.878906 16 16 15.878906 16 15.734375 C 16 15.585938 15.878906 15.464844 15.734375 15.464844 Z M 9.066406 6.933594 C 9.066406 6.785156 9.183594 6.667969 9.332031 6.667969 L 12.535156 6.667969 C 12.679688 6.667969 12.800781 6.785156 12.800781 6.933594 L 12.800781 9.597656 C 12.800781 9.746094 12.679688 9.867188 12.535156 9.867188 L 9.332031 9.867188 C 9.183594 9.867188 9.066406 9.746094 9.066406 9.597656 Z M 11.199219 1.332031 L 13.066406 1.332031 L 13.066406 4.449219 L 12.136719 3.613281 L 11.199219 2.773438 Z M 6.933594 6.933594 L 6.933594 9.597656 C 6.933594 9.746094 6.816406 9.867188 6.667969 9.867188 L 3.464844 9.867188 C 3.320312 9.867188 3.199219 9.746094 3.199219 9.597656 L 3.199219 6.933594 C 3.199219 6.785156 3.320312 6.667969 3.464844 6.667969 L 6.667969 6.667969 C 6.816406 6.667969 6.933594 6.785156 6.933594 6.933594 Z M 9.332031 15.464844 L 9.332031 12.265625 C 9.332031 11.53125 8.734375 10.933594 8 10.933594 C 7.265625 10.933594 6.667969 11.53125 6.667969 12.265625 L 6.667969 15.464844 L 6.132812 15.464844 L 6.132812 12.265625 C 6.132812 11.238281 6.972656 10.402344 8 10.402344 C 9.027344 10.402344 9.867188 11.238281 9.867188 12.265625 L 9.867188 15.464844 Z M 9.332031 15.464844 "/>
<path style=" stroke:none;fill-rule:nonzero;fill:rgb(0%,0%,0%);fill-opacity:1;" d="M 5.332031 8.535156 L 6.402344 8.535156 L 6.402344 9.332031 L 5.332031 9.332031 Z M 5.332031 8.535156 "/>
<path style=" stroke:none;fill-rule:nonzero;fill:rgb(0%,0%,0%);fill-opacity:1;" d="M 11.199219 7.199219 L 12.265625 7.199219 L 12.265625 8 L 11.199219 8 Z M 11.199219 7.199219 "/>
<path style=" stroke:none;fill-rule:nonzero;fill:rgb(0%,0%,0%);fill-opacity:1;" d="M 5.332031 7.199219 L 6.402344 7.199219 L 6.402344 8 L 5.332031 8 Z M 5.332031 7.199219 "/>
<path style=" stroke:none;fill-rule:nonzero;fill:rgb(0%,0%,0%);fill-opacity:1;" d="M 3.734375 8.535156 L 4.800781 8.535156 L 4.800781 9.332031 L 3.734375 9.332031 Z M 3.734375 8.535156 "/>
<path style=" stroke:none;fill-rule:nonzero;fill:rgb(0%,0%,0%);fill-opacity:1;" d="M 9.597656 7.199219 L 10.667969 7.199219 L 10.667969 8 L 9.597656 8 Z M 9.597656 7.199219 "/>
<path style=" stroke:none;fill-rule:nonzero;fill:rgb(0%,0%,0%);fill-opacity:1;" d="M 3.734375 7.199219 L 4.800781 7.199219 L 4.800781 8 L 3.734375 8 Z M 3.734375 7.199219 "/>
<path style=" stroke:none;fill-rule:nonzero;fill:rgb(0%,0%,0%);fill-opacity:1;" d="M 9.597656 8.535156 L 10.667969 8.535156 L 10.667969 9.332031 L 9.597656 9.332031 Z M 9.597656 8.535156 "/>
<path style=" stroke:none;fill-rule:nonzero;fill:rgb(0%,0%,0%);fill-opacity:1;" d="M 11.199219 8.535156 L 12.265625 8.535156 L 12.265625 9.332031 L 11.199219 9.332031 Z M 11.199219 8.535156 "/>
</g>
</svg>
