<svg xmlns="http://www.w3.org/2000/svg" width="16px" height="112px" viewBox="0 0 16 112">
 <!-- estoque--> 
<g transform="translate(0, 0)"><g class="nc-icon-wrapper"><g id="surface1"><path d="M15.867 4.57L8.137.035a.268.268 0 0 0-.266 0L.137 4.301A.26.26 0 0 0 0 4.535v11.2c0 .144.121.265.266.265h1.332a.27.27 0 0 0 .27-.266V6.402h12.265v9.332a.265.265 0 0 0 .27.266h1.331c.07 0 .137-.027.188-.078a.263.263 0 0 0 .078-.188V4.801a.267.267 0 0 0-.133-.23zm-.402 10.895h-.797V6.133a.268.268 0 0 0-.266-.266H1.598a.268.268 0 0 0-.266.266v9.332H.535V4.69L7.996.574l7.469 4.38zm0 0" fill="#000" stroke="none" fill-rule="nonzero" fill-opacity="1"/><path d="M13.332 12.266h-3.2a.263.263 0 0 0-.187.078.272.272 0 0 0-.078.191v3.2c0 .07.028.136.078.187.051.05.117.078.188.078h3.199c.07 0 .14-.027.188-.078a.248.248 0 0 0 .078-.188v-3.199c0-.07-.024-.14-.078-.191a.257.257 0 0 0-.188-.078zm-.266 3.199h-2.664V12.8h2.664zm0 0" fill="#000" stroke="none" fill-rule="nonzero" fill-opacity="1"/><path d="M12 12.535v.797h-.535v-.797h-.531v1.063a.265.265 0 0 0 .265.27h1.067a.265.265 0 0 0 .27-.27v-1.063zm0 0" fill="#000" stroke="none" fill-rule="nonzero" fill-opacity="1"/><path d="M10.133 12.266h-3.2a.267.267 0 0 0-.265.27v3.198c0 .145.117.266.266.266h3.199a.28.28 0 0 0 .191-.078.28.28 0 0 0 .078-.188v-3.199a.29.29 0 0 0-.078-.191.28.28 0 0 0-.191-.078zm-.266 3.199H7.2V12.8h2.668zm0 0" fill="#000" stroke="none" fill-rule="nonzero" fill-opacity="1"/><path d="M8.8 12.535v.797h-.534v-.797h-.532v1.063c0 .148.118.27.266.27h1.066c.07 0 .141-.028.188-.079a.265.265 0 0 0 .078-.191v-1.063zm0 0" fill="#000" stroke="none" fill-rule="nonzero" fill-opacity="1"/><path d="M13.332 9.066h-3.2a.263.263 0 0 0-.187.079.263.263 0 0 0-.078.187v3.203c0 .07.028.137.078.188a.28.28 0 0 0 .188.078h3.199c.07 0 .14-.031.188-.078a.248.248 0 0 0 .078-.188V9.332a.248.248 0 0 0-.078-.187.257.257 0 0 0-.188-.079zm-.266 3.2h-2.664V9.598h2.664zm0 0" fill="#000" stroke="none" fill-rule="nonzero" fill-opacity="1"/><path d="M12 9.332v.8h-.535v-.8h-.531v1.07c0 .07.027.137.078.188a.28.28 0 0 0 .187.078h1.067c.074 0 .14-.031.191-.078a.28.28 0 0 0 .078-.188v-1.07zm0 0" fill="#000" stroke="none" fill-rule="nonzero" fill-opacity="1"/><path d="M1.598 8h12.804v.535H1.598zm0 0" fill="#000" stroke="none" fill-rule="nonzero" fill-opacity="1"/><path d="M1.598 6.934h12.804v.53H1.598zm0 0" fill="#000" stroke="none" fill-rule="nonzero" fill-opacity="1"/><path d="M9.332 3.734H6.668A.263.263 0 0 0 6.402 4v1.066c0 .149.118.266.266.266h2.664a.263.263 0 0 0 .266-.266V4a.263.263 0 0 0-.266-.266zm-.266 1.067H6.934v-.535h2.132zm0 0" fill="#000" stroke="none" fill-rule="nonzero" fill-opacity="1"/></g></g></g>
 <!-- fornecedores--> 
<g transform="translate(0, 16)"><g class="nc-icon-wrapper"><path d="M13.676 11.3l-3.313 1.602-1.273-2.64 3.305-1.602zm-.805-6.718l2.734 5.645-1.656.8-2.73-5.644zm-1.453 8.773L16 11.215l-.105-.45-4.973 2.305a1.361 1.361 0 0 0-.75-.027c-.047.008-.09.023-.133.035L6.625 6.625c.426-.46.031-1.469-.797-1.363-.082.008-.113.015-.172.023-.785-.055-1.574-.312-2.285-.691-.008-.082-.008-.164-.016-.246-.039-.68-.437-1.282-1.175-1.325-.621-.035-1.364.497-1.325 1.18.102 1.61.102 2.004.094 3.547H.934c.007.207.02.547.03.754.016.316.126.574.298.766v.007c.199.305.183.63.343.957C1.313 11.63.387 13.02.027 14.394c-.257 1.016 1.301 1.446 1.563.434.363-1.39 1.469-2.793 1.762-4.2a.94.94 0 0 0 .02-.202c.972 1.004 1.624 2.636 1.75 4.062.085 1.035 1.71 1.043 1.616 0-.203-2.379-1.414-4.687-3.277-6.117l-.02-.36h.008c0-.968.004-.644-.015-1.613a7.384 7.384 0 0 0 2.086.473v.024c.25-.004.41-.024.656-.055.047-.004.086-.016.129-.027l3.304 6.507a1.39 1.39 0 0 0-.472 1.399c.18.75.93 1.21 1.68 1.035.75-.18 1.21-.93 1.03-1.68a1.34 1.34 0 0 0-.429-.719zm-.816 1.5a.473.473 0 0 1-.567-.351.466.466 0 0 1 .348-.563.466.466 0 0 1 .566.348.467.467 0 0 1-.347.566zm.34-9.199l1.277 2.64L8.91 9.899l-1.277-2.64zM2.151.207a1.218 1.218 0 1 1 .002 2.436A1.218 1.218 0 0 1 2.152.207zm0 0" fill="#000" stroke="none" fill-rule="nonzero" fill-opacity="1" id="surface1"/></g></g>
 <!-- produtos--> 
<g transform="translate(0, 32)"><g class="nc-icon-wrapper"><g id="surface1"><path d="M15.844 9.45a1.238 1.238 0 0 0-1.067-.626c-.21 0-.418.055-.601.16l-3.567 2.008a.193.193 0 0 0-.093.121 1.47 1.47 0 0 1-.551.86c-.383.273-.899.328-1.527.168-.004-.004-.004-.004-.012-.004l-2.055-.64a.233.233 0 0 1-.156-.294.24.24 0 0 1 .226-.168c.024 0 .047.004.07.012l2.048.637h.007c.485.125.86.09 1.121-.098.329-.234.387-.649.395-.707v-.012c.04-.512-.289-.98-.785-1.12l-.008-.005c-.016-.004-1.531-.5-2.496-.773a3.008 3.008 0 0 0-.828-.106c-.598 0-1.492.145-2.344.82L.074 12.556a.188.188 0 0 0-.035.265l1.922 2.54a.192.192 0 0 0 .152.074.177.177 0 0 0 .117-.04l2.477-1.906c.055-.043.129-.058.2-.043l3.995.946c.297.07.618.027.883-.125l5.594-3.149a1.228 1.228 0 0 0 .465-1.668zm0 0" fill="#000" stroke="none" fill-rule="nonzero" fill-opacity="1"/><path d="M13.621.566H6.316a.428.428 0 0 0-.43.43V2.95c0 .239.192.43.43.43h.16V7.53c0 .239.192.43.43.43h6.121c.243 0 .43-.191.43-.43V3.38h.164a.43.43 0 0 0 .43-.43V.996a.43.43 0 0 0-.43-.43zm-2.75 3.836H9.062a.343.343 0 0 1 0-.687h1.81c.187 0 .343.152.343.344a.347.347 0 0 1-.344.343zm2.32-1.882H6.746V1.426h6.445zm0 0" fill="#000" stroke="none" fill-rule="nonzero" fill-opacity="1"/></g></g></g>
 <!-- funcionarios--> 
<g transform="translate(0, 48)"><g class="nc-icon-wrapper"><path d="M15.766 13.184a.235.235 0 0 0-.235.234v1.566c0 .02-.02.04-.039.04h-.89v-3.426a.238.238 0 0 0-.235-.235.238.238 0 0 0-.234.235v3.425H12.41l.469-.511a.377.377 0 0 0 .09-.301c0-.004-.004-.004-.004-.008l-.524-3.094.098-.144.027.02a.37.37 0 0 0 .54-.137l.53-1.067 1.22.473c.046.02.675.305.675 1.055v1.015a.238.238 0 0 0 .235.235c.129 0 .23-.106.234-.235V11.31c0-1.082-.926-1.477-.965-1.493h-.008l-2.07-.804v-.426c.32-.262.55-.637.617-1.063a.81.81 0 0 0 .719-.8.813.813 0 0 0-.184-.512v-.633a2.249 2.249 0 0 0-2.246-2.246 2.24 2.24 0 0 0-1.457.54.79.79 0 0 0-.18-.49v-.628a2.243 2.243 0 1 0-4.488 0v.648a.75.75 0 0 0-.183.47 2.236 2.236 0 0 0-.883-.466.235.235 0 0 0-.285.168.23.23 0 0 0 .164.285c.781.207 1.324.91 1.324 1.72v.347a.14.14 0 0 1-.043-.008.284.284 0 0 0-.059-.156c-.058-.086-.168-.196-.511-.567a.375.375 0 0 0-.477-.058 3.328 3.328 0 0 1-1.984.547c-.219-.012-.352.082-.414.242a.296.296 0 0 0-.063.011v-.359a1.78 1.78 0 0 1 1.262-1.7.233.233 0 1 0 .094-.398.235.235 0 0 0-.23-.054 2.239 2.239 0 0 0-1.594 2.152v.649a.75.75 0 0 0-.184.496c0 .398.293.75.715.8.07.418.297.817.656 1.09v.399l-2.07.804H.965c-.04.016-.965.41-.965 1.493v3.675c0 .282.23.508.508.508h7.219A.488.488 0 0 0 8 15.41a.488.488 0 0 0 .273.082h7.22a.51.51 0 0 0 .507-.508v-1.566a.235.235 0 0 0-.234-.234zM2.363 7.039a.341.341 0 0 1-.222-.316c0-.141.097-.254.222-.309zM13.2 9.61l-.46.922-.516-.367.574-.71zm-1.316.23l-.606-.75v-.226c.196.07.407.102.61.102s.414-.04.601-.11v.235zm.273.852l-.086.133h-.379l-.086-.133.278-.195zM8 7.011l-.605-.75V6.04c.195.066.406.098.609.098.203 0 .414-.04.601-.11v.239zm.273.856l-.085.13h-.38l-.085-.13L8 7.672zm-2.12-3.191l.117.023c.07.414.296.817.656 1.09v.399l-.48.183a1.002 1.002 0 0 0-.102-.16v-.633a2.24 2.24 0 0 0-.192-.902zm3.093-.25c0 .687-.562 1.242-1.242 1.242-.774 0-1.29-.594-1.29-1.242V3.328a3.806 3.806 0 0 0 2.141-.582c.211.227.336.36.391.422zm.445.273l.118-.023c-.125.281-.188.59-.188.902v.649a.61.61 0 0 0-.094.136l-.453-.176v-.425c.32-.262.551-.637.617-1.063zM7.082 6.63l.578.71-.39.278h-.004l-.121.09-.461-.922zm1.457.46l.375-.46.402.156-.46.922-.126-.09-.39-.277zm.117 1.052l.028.02a.369.369 0 0 0 .54-.137l.393-.794c.137.165.332.27.535.293.07.45.313.832.657 1.09v.399l-1.993.773-.257-1.5zm2.309 1.312l.578.711-.516.367-.46-.922zm2.164-2.2c0 .669-.547 1.243-1.242 1.243-.797 0-1.29-.625-1.29-1.242V6.156a3.854 3.854 0 0 0 2.141-.582l.39.418zm.695-.53a.34.34 0 0 1-.226.316v-.637c.14.051.226.18.226.32zM10.09 5.578c0-.98.797-1.777 1.773-1.777.98 0 1.778.797 1.778 1.777v.348a.14.14 0 0 1-.043-.008.284.284 0 0 0-.059-.156c-.059-.09-.168-.196-.512-.567a.374.374 0 0 0-.476-.058 3.363 3.363 0 0 1-2 .547.371.371 0 0 0-.399.242.296.296 0 0 0-.062.011zm.039.836v.625a.336.336 0 0 1-.223-.316c0-.141.098-.254.223-.309zm-.188-2.52a.362.362 0 0 1-.117.258c-.035.024-.07.047-.11.063v-.64c.141.054.227.179.227.32zM7.981.978c.98 0 1.777.796 1.777 1.777v.348c-.016-.004-.031-.004-.043-.008a.318.318 0 0 0-.07-.172c-.063-.086-.176-.203-.5-.55a.375.375 0 0 0-.477-.06c-.61.399-1.352.59-2.02.543a.377.377 0 0 0-.378.243.293.293 0 0 0-.063.015v-.36c0-.98.797-1.776 1.773-1.776zM6.245 3.59v.625a.346.346 0 0 1-.223-.32c0-.137.098-.25.223-.305zm-.414 2.812a.337.337 0 0 1 .223.297.335.335 0 0 1-.223.34zm-.023 1.121a.82.82 0 0 0 .558-.324l.41.824a.369.369 0 0 0 .54.137l.023-.02.098.145-.254 1.5-1.993-.773v-.426c.332-.27.551-.645.618-1.063zM4.117 9.84l-.605-.75v-.227a1.779 1.779 0 0 0 1.21-.008v.235zm.274.851l-.086.133h-.38l-.085-.133.277-.195zm.64-1.238l.403.156-.461.922-.125-.09-.391-.277zm-2.199-2.2V6.157a3.852 3.852 0 0 0 2.14-.582l.391.418v1.262c0 .68-.554 1.242-1.242 1.242-.766 0-1.289-.59-1.289-1.242zm.367 2.2l.578.711-.39.277-.125.09L2.8 9.61zm-1.332 5.57v-3.425a.238.238 0 0 0-.234-.235.238.238 0 0 0-.235.235v3.425h-.89a.04.04 0 0 1-.04-.039V11.31c0-.75.637-1.04.677-1.055l1.214-.473.536 1.067a.369.369 0 0 0 .539.136l.023-.02.098.145-.524 3.094v.008c-.015.11.02.223.09.3l.469.512zm1.637-.789L4 11.293h.234l.496 2.941-.613.676zm4.262.75a.04.04 0 0 1-.04.04h-.89v-3.426a.238.238 0 0 0-.234-.235.238.238 0 0 0-.235.235v3.425H4.645l.468-.511a.377.377 0 0 0 .09-.301c0-.004-.004-.004-.004-.008l-.523-3.094.097-.144.028.02a.37.37 0 0 0 .539-.137L5.87 9.78l1.219.473c.355.152.676.55.676 1.055zM8 10.457a1.626 1.626 0 0 0-.383-.422l.266-1.57h.234l.262 1.57a1.734 1.734 0 0 0-.379.422zm1.633 4.566v-3.425a.238.238 0 0 0-.235-.235.238.238 0 0 0-.234.235v3.425h-.89a.04.04 0 0 1-.04-.039V11.31c0-.278.09-.536.274-.75.125-.141.289-.258.402-.305l1.215-.473.535 1.067a.369.369 0 0 0 .54.136l.023-.02.097.145-.523 3.094v.008c-.016.11.02.223.09.3l.468.512zm1.637-.789l.496-2.941H12l.496 2.941-.613.676zm0 0" fill="#000" stroke="none" fill-rule="nonzero" fill-opacity="1" id="surface1"/></g></g>
 <!-- vendas--> 
<g transform="translate(0, 64)"><g class="nc-icon-wrapper"><g id="surface1"><path d="M15.45 8.781L7.206.547A1.86 1.86 0 0 0 5.832.004l-4.328.11A1.44 1.44 0 0 0 .102 1.515L0 5.84a1.869 1.869 0 0 0 .555 1.367l8.238 8.234a1.88 1.88 0 0 0 2.656.016l4-4.008a1.89 1.89 0 0 0 0-2.668zM2.94 5.04a1.471 1.471 0 0 1 0-2.086 1.478 1.478 0 0 1 2.086 0 1.47 1.47 0 0 1 0 2.082 1.475 1.475 0 0 1-2.086.004zm2.782 2.52c-.203-.204-.352-.454-.399-.61l.414-.258c.055.164.164.387.34.559.184.184.36.203.477.086.11-.113.09-.262-.051-.55-.195-.4-.227-.755.031-1.016.3-.305.79-.29 1.211.128.203.2.309.391.367.543L7.7 6.68a1.154 1.154 0 0 0-.289-.457c-.176-.172-.34-.176-.43-.082-.117.113-.062.265.082.582.2.43.184.742-.062.996-.3.3-.785.324-1.277-.16zm1.965 1.886l.316-.597-.516-.508-.578.336-.422-.418 2.32-1.254.532.527-1.215 2.344zm.546.535l1.77-1.793.41.403-1.437 1.453.714.703-.336.344zm3.778.844l-.7-.687-.367.37.66.653-.328.332-.66-.652-.418.422.735.73-.329.332-1.14-1.129 1.77-1.793 1.105 1.094zm0 0" fill="#000" stroke="none" fill-rule="nonzero" fill-opacity="1"/><path d="M7.848 8.094l.398.394.508-.937a89.32 89.32 0 0 1-.906.543zm0 0" fill="#000" stroke="none" fill-rule="nonzero" fill-opacity="1"/></g></g></g>
 <!-- estatistica--> 
<g transform="translate(0, 80)"><g class="nc-icon-wrapper"><g id="surface1"><path d="M1.332 1.602h3.469v.53H1.332zm0 0" fill="#000" stroke="none" fill-rule="nonzero" fill-opacity="1"/><path d="M1.332 2.668h3.469v.531H1.332zm0 0" fill="#000" stroke="none" fill-rule="nonzero" fill-opacity="1"/><path d="M1.332 3.734h2.402v.532H1.332zm0 0" fill="#000" stroke="none" fill-rule="nonzero" fill-opacity="1"/><path d="M1.332 4.8h2.402v.532H1.332zm0 0" fill="#000" stroke="none" fill-rule="nonzero" fill-opacity="1"/><path d="M0 15.465h16V16H0zm0 0" fill="#3E454C" stroke="none" fill-rule="nonzero" fill-opacity="1"/><path d="M15.438 2.281L14.37.148a.264.264 0 0 0-.355-.12l-2.137 1.066a.27.27 0 0 0-.117.36.266.266 0 0 0 .36.116L13.663.8l-.422 1.204a14.222 14.222 0 0 1-12.199 9.46L1.09 12a14.764 14.764 0 0 0 12.656-9.82l.43-1.23.785 1.57a.271.271 0 0 0 .36.12.27.27 0 0 0 .117-.359zm0 0" fill="#000" stroke="none" fill-rule="nonzero" fill-opacity="1"/><path d="M3.2 12.8H1.331a.266.266 0 0 0-.266.266v1.602c0 .145.121.266.266.266h1.867a.266.266 0 0 0 .266-.266v-1.602a.263.263 0 0 0-.266-.265zm-.266 1.598H1.602v-1.066h1.332zm0 0" fill="#000" stroke="none" fill-rule="nonzero" fill-opacity="1"/><path d="M6.133 12H4.266a.268.268 0 0 0-.266.266v2.402c0 .145.121.266.266.266h1.867a.266.266 0 0 0 .265-.266v-2.402A.266.266 0 0 0 6.133 12zm-.266 2.398H4.535v-1.863h1.332zm0 0" fill="#000" stroke="none" fill-rule="nonzero" fill-opacity="1"/><path d="M9.066 10.668H7.2a.266.266 0 0 0-.265.266v3.734c0 .145.12.266.265.266h1.867a.266.266 0 0 0 .266-.266v-3.734a.263.263 0 0 0-.266-.266zm-.265 3.73H7.465V11.2H8.8zm0 0" fill="#000" stroke="none" fill-rule="nonzero" fill-opacity="1"/><path d="M12 8.8h-1.867a.263.263 0 0 0-.266.266v5.602c0 .145.117.266.266.266H12a.266.266 0 0 0 .266-.266V9.066A.263.263 0 0 0 12 8.801zm-.266 5.598h-1.336V9.332h1.336zm0 0" fill="#000" stroke="none" fill-rule="nonzero" fill-opacity="1"/><path d="M14.934 5.066h-1.868a.266.266 0 0 0-.265.266v9.336c0 .145.117.266.265.266h1.868a.266.266 0 0 0 .265-.266V5.332a.266.266 0 0 0-.265-.266zm-.266 9.332h-1.336V5.602h1.336zm0 0" fill="#000" stroke="none" fill-rule="nonzero" fill-opacity="1"/></g></g></g>
 <!-- home--> 
<g transform="translate(0, 96)"><g class="nc-icon-wrapper"><g id="surface1"><path d="M15.734 15.465h-1.332V6.363l1.153 1.035a.27.27 0 0 0 .379-.02.266.266 0 0 0-.024-.374l-2.312-2.078v-3.86a.263.263 0 0 0-.266-.265h-2.398a.263.263 0 0 0-.266.265v1.227L8.184.066A.214.214 0 0 0 8.102.02.193.193 0 0 0 8.008 0a.203.203 0 0 0-.094.02.195.195 0 0 0-.082.046l-6.14 5.5L.09 7.004a.266.266 0 0 0-.024.375.266.266 0 0 0 .2.086c.066 0 .129-.02.18-.067l1.152-1.035v9.102H.266a.27.27 0 0 0-.266.27c0 .144.121.265.266.265h15.468a.268.268 0 0 0 .266-.266.27.27 0 0 0-.266-.27zM9.066 6.934c0-.149.118-.266.266-.266h3.203c.145 0 .266.117.266.266v2.664a.27.27 0 0 1-.266.27H9.332a.267.267 0 0 1-.266-.27zM11.2 1.332h1.867v3.117l-.93-.836-.937-.84zM6.934 6.934v2.664c0 .148-.118.27-.266.27H3.465a.27.27 0 0 1-.266-.27V6.934c0-.149.121-.266.266-.266h3.203c.148 0 .266.117.266.266zm2.398 8.53v-3.198c0-.735-.598-1.332-1.332-1.332-.734 0-1.332.597-1.332 1.332v3.199h-.535v-3.2c0-1.027.84-1.863 1.867-1.863 1.027 0 1.867.836 1.867 1.864v3.199zm0 0" fill="#000" stroke="none" fill-rule="nonzero" fill-opacity="1"/><path d="M5.332 8.535h1.07v.797h-1.07zm0 0" fill="#000" stroke="none" fill-rule="nonzero" fill-opacity="1"/><path d="M11.2 7.2h1.066V8h-1.067zm0 0" fill="#000" stroke="none" fill-rule="nonzero" fill-opacity="1"/><path d="M5.332 7.2h1.07V8h-1.07zm0 0" fill="#000" stroke="none" fill-rule="nonzero" fill-opacity="1"/><path d="M3.734 8.535h1.067v.797H3.734zm0 0" fill="#000" stroke="none" fill-rule="nonzero" fill-opacity="1"/><path d="M9.598 7.2h1.07V8h-1.07zm0 0" fill="#000" stroke="none" fill-rule="nonzero" fill-opacity="1"/><path d="M3.734 7.2h1.067V8H3.734zm0 0" fill="#000" stroke="none" fill-rule="nonzero" fill-opacity="1"/><path d="M9.598 8.535h1.07v.797h-1.07zm0 0" fill="#000" stroke="none" fill-rule="nonzero" fill-opacity="1"/><path d="M11.2 8.535h1.066v.797h-1.067zm0 0" fill="#000" stroke="none" fill-rule="nonzero" fill-opacity="1"/></g></g></g>
</svg>