<?xml version="1.0" encoding="UTF-8"?>
<svg xmlns="http://www.w3.org/2000/svg" xmlns:xlink="http://www.w3.org/1999/xlink" width="16pt" height="16pt" viewBox="0 0 16 16" version="1.1">
<g id="surface1">
<path style=" stroke:none;fill-rule:nonzero;fill:rgb(0%,0%,0%);fill-opacity:1;" d="M 15.84375 9.449219 C 15.625 9.066406 15.214844 8.824219 14.777344 8.824219 C 14.566406 8.824219 14.359375 8.878906 14.175781 8.984375 L 10.609375 10.992188 C 10.5625 11.019531 10.527344 11.0625 10.515625 11.113281 C 10.453125 11.371094 10.308594 11.722656 9.964844 11.972656 C 9.582031 12.246094 9.066406 12.300781 8.4375 12.140625 C 8.433594 12.136719 8.433594 12.136719 8.425781 12.136719 L 6.371094 11.496094 C 6.246094 11.457031 6.175781 11.328125 6.214844 11.203125 C 6.246094 11.105469 6.335938 11.035156 6.441406 11.035156 C 6.464844 11.035156 6.488281 11.039062 6.511719 11.046875 L 8.558594 11.683594 C 8.558594 11.683594 8.566406 11.683594 8.566406 11.683594 C 9.050781 11.808594 9.425781 11.773438 9.6875 11.585938 C 10.015625 11.351562 10.074219 10.9375 10.082031 10.878906 C 10.082031 10.875 10.082031 10.871094 10.082031 10.871094 L 10.082031 10.867188 C 10.121094 10.355469 9.792969 9.886719 9.296875 9.746094 L 9.289062 9.742188 C 9.273438 9.738281 7.757812 9.242188 6.792969 8.96875 C 6.6875 8.9375 6.390625 8.863281 5.964844 8.863281 C 5.367188 8.863281 4.472656 9.007812 3.621094 9.683594 L 0.0742188 12.554688 C -0.0117188 12.621094 -0.0234375 12.738281 0.0390625 12.820312 L 1.960938 15.359375 C 1.996094 15.40625 2.054688 15.433594 2.113281 15.433594 C 2.15625 15.433594 2.199219 15.421875 2.230469 15.394531 L 4.707031 13.488281 C 4.761719 13.445312 4.835938 13.429688 4.90625 13.445312 L 8.902344 14.390625 C 9.199219 14.460938 9.519531 14.417969 9.785156 14.265625 L 15.378906 11.117188 C 15.964844 10.785156 16.175781 10.035156 15.84375 9.449219 Z M 15.84375 9.449219 "/>
<path style=" stroke:none;fill-rule:nonzero;fill:rgb(0%,0%,0%);fill-opacity:1;" d="M 13.621094 0.566406 L 6.316406 0.566406 C 6.078125 0.566406 5.886719 0.757812 5.886719 0.996094 L 5.886719 2.949219 C 5.886719 3.1875 6.078125 3.378906 6.316406 3.378906 L 6.476562 3.378906 L 6.476562 7.53125 C 6.476562 7.769531 6.667969 7.960938 6.90625 7.960938 L 13.027344 7.960938 C 13.269531 7.960938 13.457031 7.769531 13.457031 7.53125 L 13.457031 3.378906 L 13.621094 3.378906 C 13.855469 3.378906 14.050781 3.1875 14.050781 2.949219 L 14.050781 0.996094 C 14.050781 0.757812 13.855469 0.566406 13.621094 0.566406 Z M 10.871094 4.402344 L 9.0625 4.402344 C 8.875 4.402344 8.722656 4.246094 8.722656 4.058594 C 8.722656 3.867188 8.875 3.714844 9.0625 3.714844 L 10.871094 3.714844 C 11.058594 3.714844 11.214844 3.867188 11.214844 4.058594 C 11.214844 4.246094 11.058594 4.402344 10.871094 4.402344 Z M 13.191406 2.519531 L 6.746094 2.519531 L 6.746094 1.425781 L 13.191406 1.425781 Z M 13.191406 2.519531 "/>
</g>
</svg>
